<?xml version="1.0" encoding="UTF-8"?>
<svg id="Layer_1" xmlns="http://www.w3.org/2000/svg" version="1.1" viewBox="0 0 119.18 73.62">
  <!-- Generator: Adobe Illustrator 30.1.0, SVG Export Plug-In . SVG Version: 2.1.1 Build 136)  -->
  <defs>
    <style>
      .st0 {
        fill: #00adee;
      }

      .st1 {
        fill: #1b3664;
      }
    </style>
  </defs>
  <path class="st1" d="M54.27,56.55v1.42s-38.16-.52-38.16-.52v-.39c1.31-.03,2.63.04,3.94,0,10.38-.26,20.8-.27,31.19-.53,1.01-.03,2.03.03,3.04,0Z"/>
  <polygon class="st1" points="54.27 53.72 54.27 55.14 16.1 54.62 16.18 54.23 54.27 53.72"/>
  <path class="st1" d="M77.34,58.62h-1.42v-3.54c0-.91-2.19-.91-2.19,0v3.54h-1.42v-3.41c0-.06-.35-.63-.46-.7-.35-.22-1.15-.22-1.47.05-.09.08-.39.7-.39.77v3.29h-1.42v-3.03c0-.06.16-.85.19-.97.39-1.38,1.65-2.04,3.04-1.74.43.09.96.59,1.22.58.2,0,.86-.53,1.32-.61,1.12-.19,2.23.32,2.71,1.35.05.11.29.82.29.87v3.54Z"/>
  <path class="st1" d="M86.75,58.62h-1.42v-3.54c0-.06-.35-.54-.44-.59-.53-.32-1.75,0-1.75.59v3.54h-1.42v-3.41c0-.06-.35-.63-.46-.7-.35-.22-1.15-.22-1.47.05-.09.08-.39.7-.39.77v3.29h-1.42v-3.03c0-.14.19-.98.25-1.17.4-1.26,1.73-1.81,2.98-1.55.43.09.96.59,1.22.58.2,0,.86-.53,1.32-.61.85-.14,1.81.13,2.35.81.17.22.64,1.19.64,1.42v3.54Z"/>
  <path class="st1" d="M92.69,56.04h-3.87c-.08,1.01.8,1.75,1.77,1.32.31-.14.39-.52.51-.55.19-.05,1.03-.03,1.27,0,.15.02.26-.05.19.19-.75,2.53-4.89,2.34-5.16-.64-.44-4.79,5.47-4.7,5.29-.33ZM91.14,55.14c-.06-1.42-2.19-1.44-2.32,0h2.32Z"/>
  <path class="st1" d="M108.41,56.04h-3.87c-.08,1.01.8,1.75,1.77,1.32.31-.14.39-.52.51-.55.19-.05,1.03-.03,1.27,0,.15.02.26-.05.19.19-.75,2.53-4.89,2.34-5.16-.64-.44-4.8,5.46-4.68,5.29-.33ZM106.87,55.14c-.06-1.42-2.19-1.44-2.32,0h2.32Z"/>
  <path class="st1" d="M64.93,52.85c1.5-.24,2.73.52,3.09,2,.53,2.16-.68,4.25-3.09,3.86-2.91-.46-2.86-5.42,0-5.86ZM66.34,57.15c.81-.8.5-3-.8-3.06-1.73-.07-1.8,3.13-.38,3.35.42.07.86.02,1.17-.29Z"/>
  <path class="st1" d="M62.13,55.14c-.31-.06-1.21.1-1.4-.02-.17-.1-.2-.96-1.13-1-1.76-.08-1.76,3.43,0,3.35.88-.04,1.05-1.01,1.18-1.05.34-.08.95.07,1.33,0-.08,2.18-2.84,3.03-4.41,1.68-1.06-.91-1.05-3.25-.23-4.32,1.41-1.82,4.46-.97,4.64,1.35Z"/>
  <path class="st1" d="M102.35,55.14c-.31-.06-1.21.1-1.4-.02-.17-.1-.2-.96-1.13-1-1.76-.08-1.76,3.43,0,3.35.88-.04,1.05-1.01,1.18-1.05.34-.08.95.07,1.33,0-.08,2.18-2.84,3.03-4.41,1.68-1.06-.91-1.05-3.25-.23-4.32,1.41-1.82,4.46-.97,4.64,1.35Z"/>
  <path class="st1" d="M96.55,52.95v1.42c-.29,0-1.68-.11-1.68.32v3.93h-1.42v-4.57c0-.25,1-1.1,1.22-1.1h1.87Z"/>
  <path class="st0" d="M60.7,42.11c-1.87,0-4.06-.42-4.78-2.4-.15-.38-.25-.82-.31-1.31-.06-.49-.46-.86-.94-.86h-8.14c-.55,0-.99.48-.95,1.03.75,9.59,10.7,10.84,14.26,10.84,7.24,0,15.03-2.77,15.03-11.36,0-6.05-4.55-8.22-9.16-9.51-4.6-1.29-9.25-1.8-9.43-4.16,0-1.85,2.23-2.22,3.6-2.22,1,0,2.14.23,2.96.83.81.55,1.36,1.38,1.19,2.61,0,.01,0,.02.02.02h8.43c.56,0,1.01-.5.95-1.07-.77-7.21-6.76-9.69-13.5-9.69s-13.12,3.28-13.12,10.9c0,6.65,5.88,8.08,11.02,9.56,5.6,1.62,7.02,2.08,7.02,3.79,0,2.45-2.5,3-4.15,3Z"/>
  <path class="st0" d="M107.51,47.33l-11.35-31.6c-.02-.05-.07-.08-.12-.08h-9.61c-.06,0-.11.04-.13.09l-11.48,31.59c-.23.63.23,1.29.89,1.29h8.62c.06,0,.1-.04.12-.09l1.4-4.52c.02-.06.07-.1.13-.1h10.14c.06,0,.11.04.12.09l1.31,4.52c.02.06.07.1.13.1h8.93c.66,0,1.11-.66.89-1.29ZM92.95,36.84h-3.6c-.64,0-1.09-.63-.9-1.25l2.76-8.91h.09l2.56,8.93c.18.61-.28,1.23-.91,1.23Z"/>
  <path class="st0" d="M43.15,47.66v-6.53c0-.53-.41-.96-.9-.96h-14.81c-.5,0-.9-.43-.9-.96v-2.19c0-.53.41-.96.9-.96h12.86c.5,0,.9-.43.9-.96v-5.93c0-.53-.41-.96-.9-.96h-12.86c-.5,0-.9-.43-.9-.96v-2.19c0-.53.41-.96.9-.96h14.34c.5,0,.9-.43.9-.96v-6.53c0-.53-.41-.96-.9-.96h-23.91c-.5,0-.9.43-.9.96v31.06c0,.53.4.96.9.96h24.39c.5,0,.9-.43.9-.96Z"/>
</svg>